<?xml version="1.0" standalone="no"?>
<!DOCTYPE svg PUBLIC "-//W3C//DTD SVG 20010904//EN"
 "http://www.w3.org/TR/2001/REC-SVG-20010904/DTD/svg10.dtd">
<svg version="1.0" xmlns="http://www.w3.org/2000/svg"
 width="700.000000pt" height="700.000000pt" viewBox="0 0 700.000000 700.000000"
 preserveAspectRatio="xMidYMid meet">
<metadata>
Created by potrace 1.14, written by Peter Selinger 2001-2017
</metadata>
<g transform="translate(0.000000,700.000000) scale(0.100000,-0.100000)"
fill="#000000" stroke="none">
<path d="M2362 6411 c-25 -15 -36 -249 -17 -355 32 -181 115 -332 285 -521
113 -125 143 -201 142 -355 -1 -52 -4 -106 -7 -120 -3 -14 -8 -43 -11 -65 l-6
-40 142 2 c78 1 143 3 145 5 17 17 26 342 12 406 -26 115 -100 240 -261 443
-151 189 -162 216 -159 399 1 74 3 151 5 170 l3 35 -131 1 c-72 1 -136 -1
-142 -5z"/>
<path d="M3075 6401 c-4 -9 -9 -47 -12 -86 -27 -307 55 -529 287 -775 73 -77
122 -162 139 -238 13 -63 11 -190 -5 -267 -8 -38 -12 -70 -10 -72 6 -6 274 -8
280 -2 14 13 30 179 28 281 -3 181 -66 311 -276 573 -97 120 -139 192 -152
256 -12 60 -11 188 1 264 6 41 9 76 6 77 -3 1 -68 2 -143 3 -116 1 -138 -1
-143 -14z"/>
<path d="M3805 6376 c-5 -22 -9 -90 -10 -151 -6 -246 80 -457 274 -668 99
-108 139 -176 156 -266 7 -35 7 -180 1 -211 -3 -13 -8 -42 -12 -64 -3 -22 -8
-44 -10 -48 -6 -9 18 -10 174 -10 57 0 108 4 112 8 13 14 25 147 24 274 -1 99
-5 125 -29 190 -35 95 -105 211 -192 319 -167 207 -183 232 -202 321 -12 53
-16 193 -7 235 2 11 7 40 10 65 l6 46 -144 1 -144 1 -7 -42z"/>
<path d="M1464 4545 c3 -68 8 -129 10 -136 3 -8 7 -34 10 -59 19 -174 108
-440 209 -630 81 -152 147 -249 260 -382 153 -182 413 -385 621 -487 l85 -42
-32 -49 c-133 -207 -294 -455 -363 -560 -717 -1099 -778 -1197 -794 -1253 -15
-57 -8 -130 18 -189 78 -174 306 -226 449 -103 25 21 100 127 194 274 l154
240 926 1 926 0 18 -47 c67 -175 235 -355 420 -449 273 -139 623 -114 879 63
318 220 458 637 334 998 -73 212 -228 396 -417 494 -76 39 -179 77 -236 87
-16 3 -43 7 -60 10 -42 7 -194 7 -235 -1 -132 -24 -193 -44 -290 -97 -104 -55
-196 -132 -277 -230 -33 -41 -101 -156 -119 -204 l-17 -44 -734 0 -735 0 23
38 c13 20 82 127 154 237 72 110 191 293 265 408 l135 207 75 -6 c97 -9 266
-9 361 -1 l75 7 34 -52 c82 -128 253 -393 256 -397 2 -2 38 32 81 76 117 119
187 171 316 234 37 18 67 37 67 41 0 7 -107 179 -150 239 l-18 25 67 34 c141
71 360 219 438 294 17 17 58 56 90 87 260 250 475 632 549 972 33 153 42 218
50 358 l7 116 -2043 0 -2042 0 6 -122z m3586 -2811 c76 -23 159 -107 184 -187
45 -143 -22 -291 -161 -354 -46 -21 -66 -24 -126 -21 -85 5 -136 26 -192 83
-55 54 -78 107 -83 187 -5 76 6 117 48 181 71 105 201 149 330 111z"/>
</g>
</svg>
