<svg width="227" height="59" viewBox="0 0 227 59" fill="none" xmlns="http://www.w3.org/2000/svg">
<path d="M75.2145 17.689C75.2145 18.349 75.0715 18.844 74.7855 19.174C74.5215 19.504 74.0815 19.669 73.4655 19.669C73.4215 20.131 73.3225 20.934 73.1685 22.078C72.9485 23.618 72.8275 24.476 72.8055 24.652C70.8475 39.238 66.7665 46.531 60.5625 46.531C58.7365 46.531 57.3065 46.014 56.2725 44.98C55.2605 43.946 54.7545 42.648 54.7545 41.086C54.7545 38.292 55.9425 35.828 58.3185 33.694C60.6945 31.538 63.8185 29.756 67.6905 28.348C67.9325 26.786 68.1195 25.389 68.2515 24.157L68.8455 19.174C67.5255 19.042 66.2935 18.976 65.1495 18.976C62.0915 18.976 59.8365 19.273 58.3845 19.867C56.9325 20.461 56.2065 21.429 56.2065 22.771C56.2065 23.431 56.4265 24.146 56.8665 24.916C56.9985 25.136 57.0645 25.367 57.0645 25.609C57.0645 26.071 56.8225 26.489 56.3385 26.863C55.8765 27.215 55.3705 27.391 54.8205 27.391C54.1165 27.391 53.5775 27.094 53.2035 26.5C52.5875 25.488 52.2795 24.311 52.2795 22.969C52.2795 17.689 56.8995 15.049 66.1395 15.049C68.8235 15.049 71.2215 15.313 73.3335 15.841C74.5875 16.149 75.2145 16.765 75.2145 17.689ZM60.9915 43C62.0695 43 63.1475 42.186 64.2255 40.558C65.3035 38.93 66.2495 36.081 67.0635 32.011C61.6955 34.365 59.0115 37.247 59.0115 40.657C59.0115 41.405 59.1875 41.988 59.5395 42.406C59.8915 42.802 60.3755 43 60.9915 43ZM89.2805 35.641C89.5665 35.641 89.7865 35.773 89.9405 36.037C90.1165 36.301 90.2045 36.664 90.2045 37.126C90.2045 38.006 89.9955 38.688 89.5775 39.172C88.7635 40.162 87.6085 41.075 86.1125 41.911C84.6385 42.747 83.0545 43.165 81.3605 43.165C79.0505 43.165 77.2575 42.538 75.9815 41.284C74.7055 40.03 74.0675 38.314 74.0675 36.136C74.0675 34.618 74.3865 33.21 75.0245 31.912C75.6625 30.592 76.5425 29.547 77.6645 28.777C78.8085 28.007 80.0955 27.622 81.5255 27.622C82.8015 27.622 83.8245 28.007 84.5945 28.777C85.3645 29.525 85.7495 30.548 85.7495 31.846C85.7495 33.364 85.1995 34.673 84.0995 35.773C83.0215 36.851 81.1845 37.709 78.5885 38.347C79.1385 39.359 80.1835 39.865 81.7235 39.865C82.7135 39.865 83.8355 39.524 85.0895 38.842C86.3655 38.138 87.4655 37.225 88.3895 36.103C88.6535 35.795 88.9505 35.641 89.2805 35.641ZM80.9645 30.856C80.1505 30.856 79.4575 31.329 78.8855 32.275C78.3355 33.221 78.0605 34.365 78.0605 35.707V35.773C79.3585 35.465 80.3815 35.003 81.1295 34.387C81.8775 33.771 82.2515 33.056 82.2515 32.242C82.2515 31.824 82.1305 31.494 81.8885 31.252C81.6685 30.988 81.3605 30.856 80.9645 30.856ZM89.8606 43.165C89.0246 43.165 88.4306 42.725 88.0786 41.845C87.7486 40.965 87.5836 39.557 87.5836 37.621C87.5836 34.761 87.9906 32.044 88.8046 29.47C89.0026 28.832 89.3216 28.37 89.7616 28.084C90.2236 27.776 90.8616 27.622 91.6756 27.622C92.1156 27.622 92.4236 27.677 92.5996 27.787C92.7756 27.897 92.8636 28.106 92.8636 28.414C92.8636 28.766 92.6986 29.558 92.3686 30.79C92.1486 31.67 91.9726 32.44 91.8406 33.1C91.7086 33.76 91.5986 34.574 91.5106 35.542C92.2366 33.65 93.0506 32.11 93.9526 30.922C94.8546 29.734 95.7346 28.887 96.5926 28.381C97.4726 27.875 98.2756 27.622 99.0016 27.622C100.432 27.622 101.147 28.337 101.147 29.767C101.147 30.625 100.905 32.176 100.421 34.42C100.003 36.334 99.7936 37.599 99.7936 38.215C99.7936 39.095 100.113 39.535 100.751 39.535C101.191 39.535 101.708 39.271 102.302 38.743C102.918 38.193 103.732 37.313 104.744 36.103C105.008 35.795 105.305 35.641 105.635 35.641C105.921 35.641 106.141 35.773 106.295 36.037C106.471 36.301 106.559 36.664 106.559 37.126C106.559 38.006 106.35 38.688 105.932 39.172C104.986 40.338 103.963 41.295 102.863 42.043C101.785 42.791 100.553 43.165 99.1666 43.165C98.0446 43.165 97.1976 42.846 96.6256 42.208C96.0536 41.548 95.7676 40.602 95.7676 39.37C95.7676 38.754 95.9216 37.654 96.2296 36.07C96.5156 34.684 96.6586 33.727 96.6586 33.199C96.6586 32.847 96.5376 32.671 96.2956 32.671C96.0096 32.671 95.6026 33.045 95.0746 33.793C94.5686 34.519 94.0406 35.487 93.4906 36.697C92.9626 37.907 92.5336 39.183 92.2036 40.525C91.9616 41.559 91.6756 42.263 91.3456 42.637C91.0376 42.989 90.5426 43.165 89.8606 43.165ZM106.232 43.165C105.396 43.165 104.802 42.725 104.45 41.845C104.12 40.965 103.955 39.557 103.955 37.621C103.955 34.761 104.362 32.044 105.176 29.47C105.374 28.832 105.693 28.37 106.133 28.084C106.595 27.776 107.233 27.622 108.047 27.622C108.487 27.622 108.795 27.677 108.971 27.787C109.147 27.897 109.235 28.106 109.235 28.414C109.235 28.766 109.07 29.558 108.74 30.79C108.52 31.67 108.344 32.44 108.212 33.1C108.08 33.76 107.97 34.574 107.882 35.542C108.608 33.65 109.422 32.11 110.324 30.922C111.226 29.734 112.106 28.887 112.964 28.381C113.844 27.875 114.647 27.622 115.373 27.622C116.803 27.622 117.518 28.337 117.518 29.767C117.518 30.625 117.276 32.176 116.792 34.42C116.374 36.334 116.165 37.599 116.165 38.215C116.165 39.095 116.484 39.535 117.122 39.535C117.562 39.535 118.079 39.271 118.673 38.743C119.289 38.193 120.103 37.313 121.115 36.103C121.379 35.795 121.676 35.641 122.006 35.641C122.292 35.641 122.512 35.773 122.666 36.037C122.842 36.301 122.93 36.664 122.93 37.126C122.93 38.006 122.721 38.688 122.303 39.172C121.357 40.338 120.334 41.295 119.234 42.043C118.156 42.791 116.924 43.165 115.538 43.165C114.416 43.165 113.569 42.846 112.997 42.208C112.425 41.548 112.139 40.602 112.139 39.37C112.139 38.754 112.293 37.654 112.601 36.07C112.887 34.684 113.03 33.727 113.03 33.199C113.03 32.847 112.909 32.671 112.667 32.671C112.381 32.671 111.974 33.045 111.446 33.793C110.94 34.519 110.412 35.487 109.862 36.697C109.334 37.907 108.905 39.183 108.575 40.525C108.333 41.559 108.047 42.263 107.717 42.637C107.409 42.989 106.914 43.165 106.232 43.165ZM131.81 27.622C132.316 27.622 132.668 27.688 132.866 27.82C133.064 27.952 133.163 28.172 133.163 28.48C133.163 29.008 132.877 30.889 132.305 34.123C131.799 37.225 131.502 39.062 131.414 39.634C130.6 45.288 129.478 49.765 128.048 53.065C126.618 56.365 124.715 58.015 122.339 58.015C121.217 58.015 120.304 57.663 119.6 56.959C118.896 56.277 118.544 55.375 118.544 54.253C118.544 53.219 118.775 52.163 119.237 51.085C119.721 50.007 120.601 48.764 121.877 47.356C123.175 45.97 125.001 44.375 127.355 42.571L127.454 41.812C127.608 40.998 127.784 39.832 127.982 38.314C127.542 39.898 126.926 41.108 126.134 41.944C125.342 42.758 124.506 43.165 123.626 43.165C122.636 43.165 121.822 42.714 121.184 41.812C120.568 40.888 120.26 39.744 120.26 38.38C120.26 36.73 120.37 35.223 120.59 33.859C120.81 32.473 121.173 31.01 121.679 29.47C121.899 28.81 122.207 28.337 122.603 28.051C122.999 27.765 123.626 27.622 124.484 27.622C124.968 27.622 125.298 27.699 125.474 27.853C125.672 28.007 125.771 28.238 125.771 28.546C125.771 28.722 125.65 29.316 125.408 30.328C125.188 31.142 125.012 31.879 124.88 32.539C124.704 33.441 124.55 34.31 124.418 35.146C124.286 35.96 124.22 36.631 124.22 37.159C124.22 37.995 124.451 38.413 124.913 38.413C125.243 38.413 125.65 38.083 126.134 37.423C126.64 36.763 127.168 35.762 127.718 34.42C128.29 33.078 128.84 31.428 129.368 29.47C129.544 28.81 129.808 28.337 130.16 28.051C130.534 27.765 131.084 27.622 131.81 27.622ZM122.702 54.814C123.252 54.814 123.868 54.176 124.55 52.9C125.232 51.624 125.914 49.501 126.596 46.531C124.902 47.961 123.67 49.259 122.9 50.425C122.152 51.613 121.778 52.647 121.778 53.527C121.778 53.901 121.844 54.209 121.976 54.451C122.13 54.693 122.372 54.814 122.702 54.814ZM138.491 23.365C138.007 23.365 137.622 23.255 137.336 23.035C137.05 22.815 136.907 22.463 136.907 21.979C136.907 21.781 136.94 21.55 137.006 21.286C137.248 20.274 137.424 19.339 137.534 18.481C137.666 17.623 137.732 16.666 137.732 15.61C137.732 14.51 137.985 13.663 138.491 13.069C139.019 12.475 139.69 12.178 140.504 12.178C141.296 12.178 141.89 12.398 142.286 12.838C142.704 13.256 142.913 13.828 142.913 14.554C142.913 15.324 142.682 16.347 142.22 17.623C141.758 18.899 141.197 20.142 140.537 21.352C140.097 22.166 139.745 22.705 139.481 22.969C139.239 23.233 138.909 23.365 138.491 23.365ZM148.699 43.891C147.555 43.891 146.675 43.627 146.059 43.099C145.465 42.571 145.168 41.977 145.168 41.317C145.168 40.745 145.377 40.25 145.795 39.832C146.213 39.414 146.829 39.205 147.643 39.205C147.929 39.205 148.259 39.238 148.633 39.304C149.029 39.348 149.326 39.381 149.524 39.403C149.502 38.831 149.37 38.292 149.128 37.786C148.908 37.28 148.622 36.796 148.27 36.334C147.918 35.85 147.588 35.432 147.28 35.08C146.598 36.378 145.916 37.456 145.234 38.314C144.574 39.172 143.848 39.986 143.056 40.756C142.66 41.152 142.242 41.35 141.802 41.35C141.45 41.35 141.164 41.229 140.944 40.987C140.724 40.723 140.614 40.404 140.614 40.03C140.614 39.59 140.768 39.183 141.076 38.809L141.505 38.281C142.715 36.785 143.628 35.553 144.244 34.585C144.64 33.947 145.036 33.188 145.432 32.308C145.85 31.428 146.389 30.229 147.049 28.711C147.467 27.743 148.336 27.259 149.656 27.259C150.272 27.259 150.701 27.314 150.943 27.424C151.185 27.534 151.306 27.71 151.306 27.952C151.306 28.084 151.262 28.293 151.174 28.579C151.086 28.865 150.965 29.151 150.811 29.437C150.415 30.229 150.217 30.9 150.217 31.45C150.217 31.78 150.327 32.143 150.547 32.539C150.789 32.935 151.152 33.43 151.636 34.024C152.34 34.948 152.868 35.74 153.22 36.4C153.594 37.038 153.781 37.742 153.781 38.512C153.781 39.436 153.561 40.316 153.121 41.152C152.703 41.966 152.109 42.626 151.339 43.132C150.569 43.638 149.689 43.891 148.699 43.891Z" fill="black"/>
<path d="M177.646 43.165C175.028 43.165 172.751 42.692 170.815 41.746C168.879 40.778 167.394 39.414 166.36 37.654C165.326 35.894 164.809 33.848 164.809 31.516C164.809 28.282 165.414 25.411 166.624 22.903C167.856 20.395 169.517 18.459 171.607 17.095C173.697 15.709 176.018 15.016 178.57 15.016C180.946 15.016 182.75 15.632 183.982 16.864C185.214 18.074 185.83 19.68 185.83 21.682C185.83 23.024 185.588 24.102 185.104 24.916C184.642 25.73 183.971 26.137 183.091 26.137C182.475 26.137 181.991 25.994 181.639 25.708C181.287 25.422 181.111 25.004 181.111 24.454C181.111 24.256 181.155 23.893 181.243 23.365C181.375 22.705 181.441 22.177 181.441 21.781C181.441 19.779 180.374 18.778 178.24 18.778C176.788 18.778 175.402 19.251 174.082 20.197C172.762 21.143 171.695 22.54 170.881 24.388C170.067 26.214 169.66 28.392 169.66 30.922C169.66 33.562 170.397 35.608 171.871 37.06C173.345 38.49 175.523 39.205 178.405 39.205C179.835 39.205 181.276 39.029 182.728 38.677C184.202 38.303 185.83 37.742 187.612 36.994C187.942 36.862 188.217 36.796 188.437 36.796C188.789 36.796 189.053 36.928 189.229 37.192C189.405 37.456 189.493 37.797 189.493 38.215C189.493 39.557 188.767 40.547 187.315 41.185C185.753 41.867 184.125 42.373 182.431 42.703C180.759 43.011 179.164 43.165 177.646 43.165ZM190.963 43.165C189.599 43.165 188.51 42.67 187.696 41.68C186.882 40.69 186.475 39.392 186.475 37.786C186.475 36.026 186.882 34.365 187.696 32.803C188.51 31.219 189.588 29.954 190.93 29.008C192.294 28.04 193.735 27.556 195.253 27.556C195.737 27.556 196.056 27.655 196.21 27.853C196.386 28.029 196.529 28.359 196.639 28.843C197.101 28.755 197.585 28.711 198.091 28.711C199.169 28.711 199.708 29.096 199.708 29.866C199.708 30.328 199.543 31.428 199.213 33.166C198.707 35.696 198.454 37.456 198.454 38.446C198.454 38.776 198.531 39.04 198.685 39.238C198.861 39.436 199.081 39.535 199.345 39.535C199.763 39.535 200.269 39.271 200.863 38.743C201.457 38.193 202.26 37.313 203.272 36.103C203.536 35.795 203.833 35.641 204.163 35.641C204.449 35.641 204.669 35.773 204.823 36.037C204.999 36.301 205.087 36.664 205.087 37.126C205.087 38.006 204.878 38.688 204.46 39.172C203.558 40.294 202.601 41.24 201.589 42.01C200.577 42.78 199.598 43.165 198.652 43.165C197.926 43.165 197.255 42.923 196.639 42.439C196.045 41.933 195.594 41.251 195.286 40.393C194.142 42.241 192.701 43.165 190.963 43.165ZM192.151 39.832C192.635 39.832 193.097 39.546 193.537 38.974C193.977 38.402 194.296 37.643 194.494 36.697L195.715 30.625C194.791 30.647 193.933 30.999 193.141 31.681C192.371 32.341 191.755 33.221 191.293 34.321C190.831 35.421 190.6 36.587 190.6 37.819C190.6 38.501 190.732 39.007 190.996 39.337C191.282 39.667 191.667 39.832 192.151 39.832ZM215.25 33.76C215.866 33.76 216.174 34.222 216.174 35.146C216.174 36.884 214.81 37.753 212.082 37.753C211.554 37.753 210.795 37.654 209.805 37.456C210.091 38.82 210.322 40.338 210.498 42.01C210.696 43.66 210.795 45.024 210.795 46.102C210.795 48.478 210.41 50.293 209.64 51.547C208.87 52.801 207.858 53.428 206.604 53.428C205.02 53.428 203.887 52.306 203.205 50.062C202.545 47.818 202.215 44.43 202.215 39.898C202.215 35.674 202.666 31.395 203.568 27.061C204.492 22.705 205.746 19.108 207.33 16.27C208.936 13.41 210.696 11.98 212.61 11.98C213.644 11.98 214.447 12.442 215.019 13.366C215.613 14.29 215.91 15.533 215.91 17.095C215.91 22.265 212.819 27.897 206.637 33.991C206.417 36.147 206.307 38.039 206.307 39.667C206.307 41.933 206.384 44.254 206.538 46.63C206.692 49.028 206.945 50.227 207.297 50.227C207.957 50.227 208.287 49.083 208.287 46.795C208.287 45.079 208.166 43.418 207.924 41.812C207.704 40.206 207.396 38.512 207 36.73C206.978 36.444 207.066 36.081 207.264 35.641C207.484 35.201 207.748 34.816 208.056 34.486C208.364 34.156 208.639 33.991 208.881 33.991C209.321 33.991 209.849 34.013 210.465 34.057C210.663 34.079 210.894 34.09 211.158 34.09C212.038 34.09 213.017 34.013 214.095 33.859C214.271 33.837 214.458 33.815 214.656 33.793C214.854 33.771 215.052 33.76 215.25 33.76ZM211.917 15.247C211.521 15.247 211.026 15.918 210.432 17.26C209.86 18.602 209.288 20.384 208.716 22.606C208.144 24.806 207.649 27.138 207.231 29.602C208.991 27.6 210.344 25.521 211.29 23.365C212.236 21.187 212.72 19.152 212.742 17.26C212.742 15.918 212.467 15.247 211.917 15.247ZM225.499 36.631C225.785 36.631 226.005 36.763 226.159 37.027C226.335 37.291 226.423 37.654 226.423 38.116C226.423 38.908 226.236 39.59 225.862 40.162C225.246 41.108 224.432 41.845 223.42 42.373C222.43 42.901 221.242 43.165 219.856 43.165C217.744 43.165 216.105 42.538 214.939 41.284C213.773 40.008 213.19 38.292 213.19 36.136C213.19 34.618 213.509 33.21 214.147 31.912C214.785 30.592 215.665 29.547 216.787 28.777C217.931 28.007 219.218 27.622 220.648 27.622C221.924 27.622 222.947 28.007 223.717 28.777C224.487 29.525 224.872 30.548 224.872 31.846C224.872 33.364 224.322 34.673 223.222 35.773C222.144 36.851 220.296 37.709 217.678 38.347C218.206 39.359 219.097 39.865 220.351 39.865C221.253 39.865 221.99 39.656 222.562 39.238C223.156 38.82 223.838 38.116 224.608 37.126C224.872 36.796 225.169 36.631 225.499 36.631ZM220.087 30.856C219.273 30.856 218.58 31.329 218.008 32.275C217.458 33.221 217.183 34.365 217.183 35.707V35.773C218.481 35.465 219.504 35.003 220.252 34.387C221 33.771 221.374 33.056 221.374 32.242C221.374 31.824 221.253 31.494 221.011 31.252C220.791 30.988 220.483 30.856 220.087 30.856Z" fill="#23B684"/>
<path d="M4.93604 16.5781L38.1751 8" stroke="#23B684" stroke-width="3" stroke-linecap="round" stroke-linejoin="round"/>
<path d="M4.93604 19.4844L38.0925 13.6719" stroke="#23B684" stroke-width="3" stroke-linecap="round" stroke-linejoin="round"/>
<path d="M14.5584 17.7969C14.9462 18.6041 15.1458 19.5112 15.1384 20.4314C15.1309 21.3516 14.9166 22.2543 14.5159 23.0533L12.9856 26.0874C12.4378 27.683 12.2468 29.4088 12.4296 31.1094" stroke="#23B684" stroke-width="3" stroke-linecap="round" stroke-linejoin="round"/>
<path d="M19.18 16.9868C19.7818 17.8295 20.1457 18.86 20.2237 19.9428C20.3017 21.0256 20.0902 22.1099 19.617 23.0531L18.0867 26.0873C17.5389 27.6829 17.3478 29.4086 17.5307 31.1093" stroke="#23B684" stroke-width="3" stroke-linecap="round" stroke-linejoin="round"/>
<path d="M24.1737 16.5781C24.9062 17.4129 25.3775 18.4991 25.5148 19.6692C25.6522 20.8393 25.448 22.0284 24.9337 23.0532L23.4119 26.0874C22.8641 27.683 22.673 29.4087 22.8559 31.1094" stroke="#23B684" stroke-width="3" stroke-linecap="round" stroke-linejoin="round"/>
<path d="M3.92581 32C3.71363 32 3.50472 32.0556 3.3175 32.1618C3.13028 32.2679 2.9705 32.4214 2.85226 32.6087C2.73401 32.796 2.66093 33.0114 2.63945 33.2358C2.61798 33.4603 2.64877 33.6869 2.72912 33.8957C5.02075 38.851 9.04281 42.6582 13.9374 44.5052V47.125C13.9374 47.4897 14.0736 47.8394 14.3161 48.0973C14.5587 48.3551 14.8876 48.5 15.2306 48.5H25.5767C25.9197 48.5 26.2486 48.3551 26.4912 48.0973C26.7337 47.8394 26.8699 47.4897 26.8699 47.125V44.5052C31.7633 42.6571 35.7849 38.8511 38.0782 33.8975C38.1589 33.6886 38.19 33.4618 38.1687 33.2371C38.1474 33.0124 38.0744 32.7968 37.9561 32.6092C37.8378 32.4217 37.6779 32.268 37.4904 32.1617C37.303 32.0555 37.0939 31.9999 36.8815 32H3.92581Z" stroke="#23B684" stroke-width="3" stroke-linecap="round" stroke-linejoin="round"/>
</svg>
