<svg width="274" height="59" viewBox="0 0 274 59" fill="none" xmlns="http://www.w3.org/2000/svg">
<path d="M76.5314 17.689C76.5314 18.349 76.3884 18.844 76.1024 19.174C75.8384 19.504 75.3984 19.669 74.7824 19.669C74.7384 20.131 74.6394 20.934 74.4854 22.078C74.2654 23.618 74.1444 24.476 74.1224 24.652C72.1644 39.238 68.0834 46.531 61.8794 46.531C60.0534 46.531 58.6234 46.014 57.5894 44.98C56.5774 43.946 56.0714 42.648 56.0714 41.086C56.0714 38.292 57.2594 35.828 59.6354 33.694C62.0114 31.538 65.1354 29.756 69.0074 28.348C69.2494 26.786 69.4364 25.389 69.5684 24.157L70.1624 19.174C68.8424 19.042 67.6104 18.976 66.4664 18.976C63.4084 18.976 61.1534 19.273 59.7014 19.867C58.2494 20.461 57.5234 21.429 57.5234 22.771C57.5234 23.431 57.7434 24.146 58.1834 24.916C58.3154 25.136 58.3814 25.367 58.3814 25.609C58.3814 26.071 58.1394 26.489 57.6554 26.863C57.1934 27.215 56.6874 27.391 56.1374 27.391C55.4334 27.391 54.8944 27.094 54.5204 26.5C53.9044 25.488 53.5964 24.311 53.5964 22.969C53.5964 17.689 58.2164 15.049 67.4564 15.049C70.1404 15.049 72.5384 15.313 74.6504 15.841C75.9044 16.149 76.5314 16.765 76.5314 17.689ZM62.3084 43C63.3864 43 64.4644 42.186 65.5424 40.558C66.6204 38.93 67.5664 36.081 68.3804 32.011C63.0124 34.365 60.3284 37.247 60.3284 40.657C60.3284 41.405 60.5044 41.988 60.8564 42.406C61.2084 42.802 61.6924 43 62.3084 43ZM90.5974 35.641C90.8834 35.641 91.1034 35.773 91.2574 36.037C91.4334 36.301 91.5214 36.664 91.5214 37.126C91.5214 38.006 91.3124 38.688 90.8944 39.172C90.0804 40.162 88.9254 41.075 87.4294 41.911C85.9554 42.747 84.3714 43.165 82.6774 43.165C80.3674 43.165 78.5744 42.538 77.2984 41.284C76.0224 40.03 75.3844 38.314 75.3844 36.136C75.3844 34.618 75.7034 33.21 76.3414 31.912C76.9794 30.592 77.8594 29.547 78.9814 28.777C80.1254 28.007 81.4124 27.622 82.8424 27.622C84.1184 27.622 85.1414 28.007 85.9114 28.777C86.6814 29.525 87.0664 30.548 87.0664 31.846C87.0664 33.364 86.5164 34.673 85.4164 35.773C84.3384 36.851 82.5014 37.709 79.9054 38.347C80.4554 39.359 81.5004 39.865 83.0404 39.865C84.0304 39.865 85.1524 39.524 86.4064 38.842C87.6824 38.138 88.7824 37.225 89.7064 36.103C89.9704 35.795 90.2674 35.641 90.5974 35.641ZM82.2814 30.856C81.4674 30.856 80.7744 31.329 80.2024 32.275C79.6524 33.221 79.3774 34.365 79.3774 35.707V35.773C80.6754 35.465 81.6984 35.003 82.4464 34.387C83.1944 33.771 83.5684 33.056 83.5684 32.242C83.5684 31.824 83.4474 31.494 83.2054 31.252C82.9854 30.988 82.6774 30.856 82.2814 30.856ZM91.1775 43.165C90.3415 43.165 89.7475 42.725 89.3955 41.845C89.0655 40.965 88.9005 39.557 88.9005 37.621C88.9005 34.761 89.3075 32.044 90.1215 29.47C90.3195 28.832 90.6385 28.37 91.0785 28.084C91.5405 27.776 92.1785 27.622 92.9925 27.622C93.4325 27.622 93.7405 27.677 93.9165 27.787C94.0925 27.897 94.1805 28.106 94.1805 28.414C94.1805 28.766 94.0155 29.558 93.6855 30.79C93.4655 31.67 93.2895 32.44 93.1575 33.1C93.0255 33.76 92.9155 34.574 92.8275 35.542C93.5535 33.65 94.3675 32.11 95.2695 30.922C96.1715 29.734 97.0515 28.887 97.9095 28.381C98.7895 27.875 99.5925 27.622 100.318 27.622C101.748 27.622 102.463 28.337 102.463 29.767C102.463 30.625 102.221 32.176 101.737 34.42C101.319 36.334 101.11 37.599 101.11 38.215C101.11 39.095 101.429 39.535 102.067 39.535C102.507 39.535 103.024 39.271 103.618 38.743C104.234 38.193 105.048 37.313 106.06 36.103C106.324 35.795 106.621 35.641 106.951 35.641C107.237 35.641 107.457 35.773 107.611 36.037C107.787 36.301 107.875 36.664 107.875 37.126C107.875 38.006 107.666 38.688 107.248 39.172C106.302 40.338 105.279 41.295 104.179 42.043C103.101 42.791 101.869 43.165 100.483 43.165C99.3615 43.165 98.5145 42.846 97.9425 42.208C97.3705 41.548 97.0845 40.602 97.0845 39.37C97.0845 38.754 97.2385 37.654 97.5465 36.07C97.8325 34.684 97.9755 33.727 97.9755 33.199C97.9755 32.847 97.8545 32.671 97.6125 32.671C97.3265 32.671 96.9195 33.045 96.3915 33.793C95.8855 34.519 95.3575 35.487 94.8075 36.697C94.2795 37.907 93.8505 39.183 93.5205 40.525C93.2785 41.559 92.9925 42.263 92.6625 42.637C92.3545 42.989 91.8595 43.165 91.1775 43.165ZM107.549 43.165C106.713 43.165 106.119 42.725 105.767 41.845C105.437 40.965 105.272 39.557 105.272 37.621C105.272 34.761 105.679 32.044 106.493 29.47C106.691 28.832 107.01 28.37 107.45 28.084C107.912 27.776 108.55 27.622 109.364 27.622C109.804 27.622 110.112 27.677 110.288 27.787C110.464 27.897 110.552 28.106 110.552 28.414C110.552 28.766 110.387 29.558 110.057 30.79C109.837 31.67 109.661 32.44 109.529 33.1C109.397 33.76 109.287 34.574 109.199 35.542C109.925 33.65 110.739 32.11 111.641 30.922C112.543 29.734 113.423 28.887 114.281 28.381C115.161 27.875 115.964 27.622 116.69 27.622C118.12 27.622 118.835 28.337 118.835 29.767C118.835 30.625 118.593 32.176 118.109 34.42C117.691 36.334 117.482 37.599 117.482 38.215C117.482 39.095 117.801 39.535 118.439 39.535C118.879 39.535 119.396 39.271 119.99 38.743C120.606 38.193 121.42 37.313 122.432 36.103C122.696 35.795 122.993 35.641 123.323 35.641C123.609 35.641 123.829 35.773 123.983 36.037C124.159 36.301 124.247 36.664 124.247 37.126C124.247 38.006 124.038 38.688 123.62 39.172C122.674 40.338 121.651 41.295 120.551 42.043C119.473 42.791 118.241 43.165 116.855 43.165C115.733 43.165 114.886 42.846 114.314 42.208C113.742 41.548 113.456 40.602 113.456 39.37C113.456 38.754 113.61 37.654 113.918 36.07C114.204 34.684 114.347 33.727 114.347 33.199C114.347 32.847 114.226 32.671 113.984 32.671C113.698 32.671 113.291 33.045 112.763 33.793C112.257 34.519 111.729 35.487 111.179 36.697C110.651 37.907 110.222 39.183 109.892 40.525C109.65 41.559 109.364 42.263 109.034 42.637C108.726 42.989 108.231 43.165 107.549 43.165ZM133.127 27.622C133.633 27.622 133.985 27.688 134.183 27.82C134.381 27.952 134.48 28.172 134.48 28.48C134.48 29.008 134.194 30.889 133.622 34.123C133.116 37.225 132.819 39.062 132.731 39.634C131.917 45.288 130.795 49.765 129.365 53.065C127.935 56.365 126.032 58.015 123.656 58.015C122.534 58.015 121.621 57.663 120.917 56.959C120.213 56.277 119.861 55.375 119.861 54.253C119.861 53.219 120.092 52.163 120.554 51.085C121.038 50.007 121.918 48.764 123.194 47.356C124.492 45.97 126.318 44.375 128.672 42.571L128.771 41.812C128.925 40.998 129.101 39.832 129.299 38.314C128.859 39.898 128.243 41.108 127.451 41.944C126.659 42.758 125.823 43.165 124.943 43.165C123.953 43.165 123.139 42.714 122.501 41.812C121.885 40.888 121.577 39.744 121.577 38.38C121.577 36.73 121.687 35.223 121.907 33.859C122.127 32.473 122.49 31.01 122.996 29.47C123.216 28.81 123.524 28.337 123.92 28.051C124.316 27.765 124.943 27.622 125.801 27.622C126.285 27.622 126.615 27.699 126.791 27.853C126.989 28.007 127.088 28.238 127.088 28.546C127.088 28.722 126.967 29.316 126.725 30.328C126.505 31.142 126.329 31.879 126.197 32.539C126.021 33.441 125.867 34.31 125.735 35.146C125.603 35.96 125.537 36.631 125.537 37.159C125.537 37.995 125.768 38.413 126.23 38.413C126.56 38.413 126.967 38.083 127.451 37.423C127.957 36.763 128.485 35.762 129.035 34.42C129.607 33.078 130.157 31.428 130.685 29.47C130.861 28.81 131.125 28.337 131.477 28.051C131.851 27.765 132.401 27.622 133.127 27.622ZM124.019 54.814C124.569 54.814 125.185 54.176 125.867 52.9C126.549 51.624 127.231 49.501 127.913 46.531C126.219 47.961 124.987 49.259 124.217 50.425C123.469 51.613 123.095 52.647 123.095 53.527C123.095 53.901 123.161 54.209 123.293 54.451C123.447 54.693 123.689 54.814 124.019 54.814ZM139.808 23.365C139.324 23.365 138.939 23.255 138.653 23.035C138.367 22.815 138.224 22.463 138.224 21.979C138.224 21.781 138.257 21.55 138.323 21.286C138.565 20.274 138.741 19.339 138.851 18.481C138.983 17.623 139.049 16.666 139.049 15.61C139.049 14.51 139.302 13.663 139.808 13.069C140.336 12.475 141.007 12.178 141.821 12.178C142.613 12.178 143.207 12.398 143.603 12.838C144.021 13.256 144.23 13.828 144.23 14.554C144.23 15.324 143.999 16.347 143.537 17.623C143.075 18.899 142.514 20.142 141.854 21.352C141.414 22.166 141.062 22.705 140.798 22.969C140.556 23.233 140.226 23.365 139.808 23.365ZM150.015 43.891C148.871 43.891 147.991 43.627 147.375 43.099C146.781 42.571 146.484 41.977 146.484 41.317C146.484 40.745 146.693 40.25 147.111 39.832C147.529 39.414 148.145 39.205 148.959 39.205C149.245 39.205 149.575 39.238 149.949 39.304C150.345 39.348 150.642 39.381 150.84 39.403C150.818 38.831 150.686 38.292 150.444 37.786C150.224 37.28 149.938 36.796 149.586 36.334C149.234 35.85 148.904 35.432 148.596 35.08C147.914 36.378 147.232 37.456 146.55 38.314C145.89 39.172 145.164 39.986 144.372 40.756C143.976 41.152 143.558 41.35 143.118 41.35C142.766 41.35 142.48 41.229 142.26 40.987C142.04 40.723 141.93 40.404 141.93 40.03C141.93 39.59 142.084 39.183 142.392 38.809L142.821 38.281C144.031 36.785 144.944 35.553 145.56 34.585C145.956 33.947 146.352 33.188 146.748 32.308C147.166 31.428 147.705 30.229 148.365 28.711C148.783 27.743 149.652 27.259 150.972 27.259C151.588 27.259 152.017 27.314 152.259 27.424C152.501 27.534 152.622 27.71 152.622 27.952C152.622 28.084 152.578 28.293 152.49 28.579C152.402 28.865 152.281 29.151 152.127 29.437C151.731 30.229 151.533 30.9 151.533 31.45C151.533 31.78 151.643 32.143 151.863 32.539C152.105 32.935 152.468 33.43 152.952 34.024C153.656 34.948 154.184 35.74 154.536 36.4C154.91 37.038 155.097 37.742 155.097 38.512C155.097 39.436 154.877 40.316 154.437 41.152C154.019 41.966 153.425 42.626 152.655 43.132C151.885 43.638 151.005 43.891 150.015 43.891Z" fill="black"/>
<path d="M178.963 43.165C176.345 43.165 174.068 42.692 172.132 41.746C170.196 40.778 168.711 39.414 167.677 37.654C166.643 35.894 166.126 33.848 166.126 31.516C166.126 28.282 166.731 25.411 167.941 22.903C169.173 20.395 170.834 18.459 172.924 17.095C175.014 15.709 177.335 15.016 179.887 15.016C182.263 15.016 184.067 15.632 185.299 16.864C186.531 18.074 187.147 19.68 187.147 21.682C187.147 23.024 186.905 24.102 186.421 24.916C185.959 25.73 185.288 26.137 184.408 26.137C183.792 26.137 183.308 25.994 182.956 25.708C182.604 25.422 182.428 25.004 182.428 24.454C182.428 24.256 182.472 23.893 182.56 23.365C182.692 22.705 182.758 22.177 182.758 21.781C182.758 19.779 181.691 18.778 179.557 18.778C178.105 18.778 176.719 19.251 175.399 20.197C174.079 21.143 173.012 22.54 172.198 24.388C171.384 26.214 170.977 28.392 170.977 30.922C170.977 33.562 171.714 35.608 173.188 37.06C174.662 38.49 176.84 39.205 179.722 39.205C181.152 39.205 182.593 39.029 184.045 38.677C185.519 38.303 187.147 37.742 188.929 36.994C189.259 36.862 189.534 36.796 189.754 36.796C190.106 36.796 190.37 36.928 190.546 37.192C190.722 37.456 190.81 37.797 190.81 38.215C190.81 39.557 190.084 40.547 188.632 41.185C187.07 41.867 185.442 42.373 183.748 42.703C182.076 43.011 180.481 43.165 178.963 43.165ZM204.729 32.869C205.015 32.869 205.235 33.012 205.389 33.298C205.543 33.584 205.62 33.947 205.62 34.387C205.62 35.443 205.301 36.07 204.663 36.268C203.343 36.73 201.891 36.994 200.307 37.06C199.889 38.908 199.064 40.393 197.832 41.515C196.6 42.615 195.203 43.165 193.641 43.165C192.321 43.165 191.188 42.846 190.242 42.208C189.318 41.57 188.614 40.723 188.13 39.667C187.646 38.611 187.404 37.467 187.404 36.235C187.404 34.563 187.723 33.078 188.361 31.78C188.999 30.46 189.879 29.437 191.001 28.711C192.123 27.963 193.366 27.589 194.73 27.589C196.402 27.589 197.744 28.172 198.756 29.338C199.79 30.482 200.395 31.901 200.571 33.595C201.605 33.529 202.837 33.309 204.267 32.935C204.443 32.891 204.597 32.869 204.729 32.869ZM193.905 39.667C194.609 39.667 195.214 39.381 195.72 38.809C196.248 38.237 196.6 37.412 196.776 36.334C196.094 35.872 195.566 35.267 195.192 34.519C194.84 33.771 194.664 32.979 194.664 32.143C194.664 31.791 194.697 31.439 194.763 31.087H194.598C193.718 31.087 192.981 31.516 192.387 32.374C191.815 33.21 191.529 34.398 191.529 35.938C191.529 37.148 191.76 38.072 192.222 38.71C192.706 39.348 193.267 39.667 193.905 39.667ZM219.618 32.869C219.904 32.869 220.124 33.012 220.278 33.298C220.432 33.584 220.509 33.947 220.509 34.387C220.509 35.443 220.19 36.07 219.552 36.268C218.232 36.73 216.78 36.994 215.196 37.06C214.778 38.908 213.953 40.393 212.721 41.515C211.489 42.615 210.092 43.165 208.53 43.165C207.21 43.165 206.077 42.846 205.131 42.208C204.207 41.57 203.503 40.723 203.019 39.667C202.535 38.611 202.293 37.467 202.293 36.235C202.293 34.563 202.612 33.078 203.25 31.78C203.888 30.46 204.768 29.437 205.89 28.711C207.012 27.963 208.255 27.589 209.619 27.589C211.291 27.589 212.633 28.172 213.645 29.338C214.679 30.482 215.284 31.901 215.46 33.595C216.494 33.529 217.726 33.309 219.156 32.935C219.332 32.891 219.486 32.869 219.618 32.869ZM208.794 39.667C209.498 39.667 210.103 39.381 210.609 38.809C211.137 38.237 211.489 37.412 211.665 36.334C210.983 35.872 210.455 35.267 210.081 34.519C209.729 33.771 209.553 32.979 209.553 32.143C209.553 31.791 209.586 31.439 209.652 31.087H209.487C208.607 31.087 207.87 31.516 207.276 32.374C206.704 33.21 206.418 34.398 206.418 35.938C206.418 37.148 206.649 38.072 207.111 38.71C207.595 39.348 208.156 39.667 208.794 39.667ZM236.75 35.641C237.036 35.641 237.256 35.773 237.41 36.037C237.586 36.301 237.674 36.664 237.674 37.126C237.674 38.006 237.465 38.688 237.047 39.172C236.057 40.382 235.056 41.35 234.044 42.076C233.032 42.802 231.833 43.165 230.447 43.165C228.753 43.165 227.389 42.681 226.355 41.713C225.321 40.745 224.804 39.458 224.804 37.852C224.804 36.994 225.244 36.378 226.124 36.004C227.092 35.586 227.785 35.146 228.203 34.684C228.621 34.2 228.83 33.617 228.83 32.935C228.83 32.539 228.742 32.242 228.566 32.044C228.412 31.846 228.214 31.747 227.972 31.747C227.378 31.747 226.718 32.176 225.992 33.034C225.288 33.892 224.628 35.003 224.012 36.367C223.396 37.709 222.912 39.095 222.56 40.525C222.318 41.559 222.032 42.263 221.702 42.637C221.394 42.989 220.899 43.165 220.217 43.165C219.535 43.165 219.029 42.923 218.699 42.439C218.391 41.933 218.182 41.163 218.072 40.129C217.962 39.095 217.907 37.577 217.907 35.575C217.907 32.187 218.248 28.656 218.93 24.982C219.634 21.308 220.657 18.228 221.999 15.742C223.363 13.234 224.991 11.98 226.883 11.98C227.895 11.98 228.709 12.42 229.325 13.3C229.963 14.158 230.282 15.28 230.282 16.666C230.282 18.888 229.633 21.198 228.335 23.596C227.037 25.972 224.925 28.755 221.999 31.945C221.933 33.089 221.9 34.266 221.9 35.476C222.956 32.726 224.166 30.735 225.53 29.503C226.894 28.249 228.17 27.622 229.358 27.622C230.458 27.622 231.338 27.996 231.998 28.744C232.68 29.492 233.021 30.416 233.021 31.516C233.021 32.726 232.713 33.837 232.097 34.849C231.481 35.861 230.425 36.763 228.929 37.555C229.017 38.149 229.281 38.633 229.721 39.007C230.183 39.359 230.733 39.535 231.371 39.535C232.053 39.535 232.713 39.271 233.351 38.743C233.989 38.215 234.825 37.335 235.859 36.103C236.123 35.795 236.42 35.641 236.75 35.641ZM226.19 15.247C225.794 15.247 225.354 15.819 224.87 16.963C224.386 18.085 223.913 19.614 223.451 21.55C223.011 23.464 222.648 25.554 222.362 27.82C223.726 26.214 224.848 24.465 225.728 22.573C226.63 20.681 227.081 18.965 227.081 17.425C227.081 16.721 227.004 16.182 226.85 15.808C226.696 15.434 226.476 15.247 226.19 15.247ZM239.337 25.444C238.413 25.444 237.72 25.235 237.258 24.817C236.796 24.377 236.565 23.772 236.565 23.002C236.565 22.232 236.862 21.594 237.456 21.088C238.072 20.56 238.831 20.296 239.733 20.296C240.547 20.296 241.207 20.494 241.713 20.89C242.219 21.286 242.472 21.847 242.472 22.573C242.472 23.453 242.186 24.157 241.614 24.685C241.042 25.191 240.283 25.444 239.337 25.444ZM239.073 43.165C237.643 43.165 236.598 42.659 235.938 41.647C235.3 40.635 234.981 39.293 234.981 37.621C234.981 36.631 235.102 35.366 235.344 33.826C235.608 32.264 235.938 30.812 236.334 29.47C236.532 28.766 236.796 28.282 237.126 28.018C237.456 27.754 237.984 27.622 238.71 27.622C239.832 27.622 240.393 27.996 240.393 28.744C240.393 29.294 240.184 30.57 239.766 32.572C239.238 34.992 238.974 36.631 238.974 37.489C238.974 38.149 239.062 38.655 239.238 39.007C239.414 39.359 239.711 39.535 240.129 39.535C240.525 39.535 241.02 39.26 241.614 38.71C242.208 38.16 243 37.291 243.99 36.103C244.254 35.795 244.551 35.641 244.881 35.641C245.167 35.641 245.387 35.773 245.541 36.037C245.717 36.301 245.805 36.664 245.805 37.126C245.805 38.006 245.596 38.688 245.178 39.172C243 41.834 240.965 43.165 239.073 43.165ZM245.478 43.165C244.642 43.165 244.048 42.725 243.696 41.845C243.366 40.965 243.201 39.557 243.201 37.621C243.201 34.761 243.608 32.044 244.422 29.47C244.62 28.832 244.939 28.37 245.379 28.084C245.841 27.776 246.479 27.622 247.293 27.622C247.733 27.622 248.041 27.677 248.217 27.787C248.393 27.897 248.481 28.106 248.481 28.414C248.481 28.766 248.316 29.558 247.986 30.79C247.766 31.67 247.59 32.44 247.458 33.1C247.326 33.76 247.216 34.574 247.128 35.542C247.854 33.65 248.668 32.11 249.57 30.922C250.472 29.734 251.352 28.887 252.21 28.381C253.09 27.875 253.893 27.622 254.619 27.622C256.049 27.622 256.764 28.337 256.764 29.767C256.764 30.625 256.522 32.176 256.038 34.42C255.62 36.334 255.411 37.599 255.411 38.215C255.411 39.095 255.73 39.535 256.368 39.535C256.808 39.535 257.325 39.271 257.919 38.743C258.535 38.193 259.349 37.313 260.361 36.103C260.625 35.795 260.922 35.641 261.252 35.641C261.538 35.641 261.758 35.773 261.912 36.037C262.088 36.301 262.176 36.664 262.176 37.126C262.176 38.006 261.967 38.688 261.549 39.172C260.603 40.338 259.58 41.295 258.48 42.043C257.402 42.791 256.17 43.165 254.784 43.165C253.662 43.165 252.815 42.846 252.243 42.208C251.671 41.548 251.385 40.602 251.385 39.37C251.385 38.754 251.539 37.654 251.847 36.07C252.133 34.684 252.276 33.727 252.276 33.199C252.276 32.847 252.155 32.671 251.913 32.671C251.627 32.671 251.22 33.045 250.692 33.793C250.186 34.519 249.658 35.487 249.108 36.697C248.58 37.907 248.151 39.183 247.821 40.525C247.579 41.559 247.293 42.263 246.963 42.637C246.655 42.989 246.16 43.165 245.478 43.165ZM270.693 28.711C271.243 28.711 271.628 28.799 271.848 28.975C272.09 29.129 272.211 29.448 272.211 29.932C272.211 30.196 272.2 30.405 272.178 30.559C272.09 31.241 271.815 33.001 271.353 35.839C271.023 37.753 270.814 39.018 270.726 39.634C269.89 45.31 268.757 49.787 267.327 53.065C265.919 56.365 264.027 58.015 261.651 58.015C260.529 58.015 259.616 57.663 258.912 56.959C258.208 56.277 257.856 55.375 257.856 54.253C257.856 52.691 258.472 51.008 259.704 49.204C260.936 47.422 263.246 45.222 266.634 42.604L266.832 41.317C266.458 41.911 265.963 42.373 265.347 42.703C264.753 43.011 264.159 43.165 263.565 43.165C262.201 43.165 261.112 42.67 260.298 41.68C259.484 40.69 259.077 39.392 259.077 37.786C259.077 36.026 259.484 34.365 260.298 32.803C261.112 31.219 262.19 29.954 263.532 29.008C264.896 28.04 266.337 27.556 267.855 27.556C268.339 27.556 268.658 27.655 268.812 27.853C268.988 28.029 269.131 28.359 269.241 28.843C269.659 28.755 270.143 28.711 270.693 28.711ZM264.753 39.832C265.259 39.832 265.743 39.524 266.205 38.908C266.667 38.292 266.997 37.412 267.195 36.268L268.251 30.625C267.349 30.647 266.513 30.999 265.743 31.681C264.973 32.341 264.357 33.221 263.895 34.321C263.433 35.421 263.202 36.587 263.202 37.819C263.202 38.501 263.334 39.007 263.598 39.337C263.884 39.667 264.269 39.832 264.753 39.832ZM262.014 54.814C262.564 54.814 263.18 54.154 263.862 52.834C264.566 51.514 265.237 49.413 265.875 46.531C264.181 47.983 262.96 49.292 262.212 50.458C261.464 51.624 261.09 52.647 261.09 53.527C261.09 53.901 261.156 54.209 261.288 54.451C261.442 54.693 261.684 54.814 262.014 54.814Z" fill="#23B684"/>
<path d="M4.93604 16.5781L38.1751 8" stroke="#23B684" stroke-width="3" stroke-linecap="round" stroke-linejoin="round"/>
<path d="M4.93604 19.4844L38.0925 13.6719" stroke="#23B684" stroke-width="3" stroke-linecap="round" stroke-linejoin="round"/>
<path d="M14.5584 17.7969C14.9462 18.6041 15.1458 19.5112 15.1384 20.4314C15.1309 21.3516 14.9166 22.2543 14.5159 23.0533L12.9856 26.0874C12.4378 27.683 12.2468 29.4088 12.4296 31.1094" stroke="#23B684" stroke-width="3" stroke-linecap="round" stroke-linejoin="round"/>
<path d="M19.18 16.9868C19.7818 17.8295 20.1457 18.86 20.2237 19.9428C20.3017 21.0256 20.0902 22.1099 19.617 23.0531L18.0867 26.0873C17.5389 27.6829 17.3478 29.4086 17.5307 31.1093" stroke="#23B684" stroke-width="3" stroke-linecap="round" stroke-linejoin="round"/>
<path d="M24.1737 16.5781C24.9062 17.4129 25.3775 18.4991 25.5148 19.6692C25.6522 20.8393 25.448 22.0284 24.9337 23.0532L23.4119 26.0874C22.8641 27.683 22.673 29.4087 22.8559 31.1094" stroke="#23B684" stroke-width="3" stroke-linecap="round" stroke-linejoin="round"/>
<path d="M3.92581 32C3.71363 32 3.50472 32.0556 3.3175 32.1618C3.13028 32.2679 2.9705 32.4214 2.85226 32.6087C2.73401 32.796 2.66093 33.0114 2.63945 33.2358C2.61798 33.4603 2.64877 33.6869 2.72912 33.8957C5.02075 38.851 9.04281 42.6582 13.9374 44.5052V47.125C13.9374 47.4897 14.0736 47.8394 14.3161 48.0973C14.5587 48.3551 14.8876 48.5 15.2306 48.5H25.5767C25.9197 48.5 26.2486 48.3551 26.4912 48.0973C26.7337 47.8394 26.8699 47.4897 26.8699 47.125V44.5052C31.7633 42.6571 35.7849 38.8511 38.0782 33.8975C38.1589 33.6886 38.19 33.4618 38.1687 33.2371C38.1474 33.0124 38.0744 32.7968 37.9561 32.6092C37.8378 32.4217 37.6779 32.268 37.4904 32.1617C37.303 32.0555 37.0939 31.9999 36.8815 32H3.92581Z" stroke="#23B684" stroke-width="3" stroke-linecap="round" stroke-linejoin="round"/>
</svg>
